<?xml version="1.0" standalone="no"?>
<!DOCTYPE svg PUBLIC "-//W3C//DTD SVG 20010904//EN"
 "http://www.w3.org/TR/2001/REC-SVG-20010904/DTD/svg10.dtd">
<svg version="1.0" xmlns="http://www.w3.org/2000/svg"
 width="96.000000pt" height="96.000000pt" viewBox="0 0 96.000000 96.000000"
 preserveAspectRatio="xMidYMid meet">
<metadata>
Created by potrace 1.11, written by Peter Selinger 2001-2013
</metadata>
<g transform="translate(0.000000,96.000000) scale(0.100000,-0.100000)"
fill="#000000" stroke="none">
<path d="M375 856 c-150 -47 -262 -176 -281 -323 -5 -44 -4 -52 12 -60 30 -15
740 -11 756 5 18 18 -6 124 -44 192 -41 72 -98 125 -177 163 -54 25 -79 31
-145 33 -45 1 -99 -3 -121 -10z m253 -51 c105 -47 198 -170 204 -270 l3 -40
-354 0 c-267 0 -355 3 -358 12 -9 22 26 119 63 174 93 142 283 195 442 124z"/>
<path d="M383 796 c-110 -36 -198 -128 -221 -233 l-9 -39 326 1 326 0 -3 25
c-10 83 -100 193 -190 233 -59 25 -171 32 -229 13z"/>
<path d="M100 405 c0 -13 49 -15 380 -15 331 0 380 2 380 15 0 13 -49 15 -380
15 -331 0 -380 -2 -380 -15z"/>
<path d="M137 342 c-10 -2 -16 -9 -14 -15 4 -14 688 -19 709 -6 7 5 9 11 5 16
-8 7 -663 12 -700 5z"/>
<path d="M170 255 c0 -13 37 -15 310 -13 198 2 310 7 310 13 0 6 -112 11 -310
13 -273 2 -310 0 -310 -13z"/>
<path d="M243 187 c-3 -5 -2 -11 2 -15 10 -10 466 -9 472 1 3 5 2 11 -2 15 -9
10 -466 9 -472 -1z"/>
<path d="M362 108 c3 -9 40 -14 126 -16 104 -2 122 0 122 13 0 13 -20 15 -126
15 -96 0 -125 -3 -122 -12z"/>
</g>
</svg>
